PathFileType	4	(X/Y/Z)	C:/Users/beibeiliu/ov580/test_trc/User3\sequence.13_training_dense_right.trc
DataRate	CameraRate	NumFrames	NumMarkers	Units	OrigDataRate	OrigDataStartFrame	OrigNumFrames
120	120	16	19	mm	120	244	278
Frame#	Time	ThumbCMC			ThumbMCP			ThumbIP			ThumbTip			IndexMCP			IndexPIP			IndexTip			MiddleMCP			MiddlePIP			MiddleTip			RingMCP			RingPIP			RingTip			PinkyMCP			PinkyPIP			PinkyTip			BackHand1			BackHand2			BackHand3	
		X0	Y0	Z0	X1	Y1	Z1	X2	Y2	Z2	X3	Y3	Z3	X4	Y4	Z4	X5	Y5	Z5	X6	Y6	Z6	X7	Y7	Z7	X8	Y8	Z8	X9	Y9	Z9	X10	Y10	Z10	X11	Y11	Z11	X12	Y12	Z12	X13	Y13	Z13	X14	Y14	Z14	X15	Y15	Z15	X16	Y16	Z16	X17	Y17	Z17	X18	Y18	Z18	
243	2.025	126.805	-13.3456	28.1399	114.752	-31.2335	-2.55195	119.152	-45.1785	-31.6319	137.328	-57.9028	-47.1067	147.145	13.7103	-46.9735	145.155	15.2851	-70.2329	148.168	15.6847	-94.091	159.219	-12.9627	-51.1656	144.957	-42.4817	-57.7997	143.088	-42.1085	-17.2252	169.505	-27.7057	-44.3411	155.749	-53.465	-40.8578	151.984	-50.08	-8.56261	185.78	-33.6575	-34.2902	168.959	-56.3672	-34.3624	163.691	-52.6575	-8.01117	189.172	0.739395	1.30955	189.559	-1.87176	34.6546	156.592	13.0624	21.6213	
244	2.03333	127.741	-13.7004	28.3297	117.195	-30.7884	-3.95548	120.307	-45.8837	-34.0743	138.801	-58.0239	-47.3429	147.504	11.5755	-46.0745	145.381	13.597	-72.7214	145.844	12.3585	-98.846	156.836	-10.8337	-52.4902	145.244	-41.6112	-57.8861	142.181	-41.3463	-17.6457	172.041	-28.007	-46.0197	159.89	-55.0623	-42.709	151.718	-48.7751	-6.98209	188.016	-35.4759	-35.4998	168.927	-56.5266	-35.432	163.323	-51.7734	-3.72917	187.006	3.09914	4.44968	190.006	-2.61605	35.1258	156.55	13.2079	17.7606	
245	2.04167	127.868	-13.1301	27.3209	116.779	-30.6383	-5.16548	120.094	-44.6456	-30.3935	140.336	-57.4259	-44.8701	145.038	11.7469	-44.6711	139.737	13.6554	-70.9673	142.237	8.55929	-100.293	159.3	-11.496	-55.8055	144.7	-38.8963	-61.951	139.114	-45.8902	-24.0869	173.676	-27.82	-46.5523	156.198	-53.8931	-44.213	152.799	-53.1117	-12.9383	186.374	-38.7841	-38.6392	168.577	-56.6517	-35.6139	160.385	-52.3822	-6.87152	187.151	0.904908	-0.109007	189.6	-1.92194	35.3134	156.233	11.949	20.4464	
246	2.05	125.668	-12.2163	24.4502	115.676	-31.1462	-6.61624	121.483	-45.783	-31.3015	142.93	-57.1001	-45.9359	143.301	11.5066	-46.2406	137.586	13.1942	-75.7491	136.416	9.16726	-98.1544	158.586	-9.67622	-58.1214	145.558	-38.2362	-65.8019	136.526	-46.2755	-26.898	168.348	-23.8417	-47.7342	157.145	-54.6156	-46.9632	151.805	-53.878	-14.4491	184.523	-36.6839	-36.8539	168.732	-56.9683	-37.9007	158.254	-53.2226	-4.67812	189.75	0.708817	0.504099	190.802	-2.21905	33.8671	155.462	12.9151	20.2371	
247	2.05833	124.333	-12.395	24.6709	114.155	-32.1276	-6.51501	119.024	-47.8546	-32.7347	138.112	-60.2483	-48.9384	139.411	13.5666	-46.0562	135.173	12.616	-75.7664	130.096	8.25483	-101.577	157.714	-4.07065	-56.7553	145.126	-30.9671	-72.0583	133.923	-49.3511	-40.2977	170.401	-26.1562	-50.9816	158.94	-53.0725	-48.8991	149.491	-54.3377	-16.3906	185.319	-38.7434	-38.9646	165.851	-57.2702	-36.4102	160.622	-55.7133	-6.00142	187.819	-0.699709	4.18478	186.714	-1.32646	32.9616	155.698	14.5526	17.8006	
248	2.06667	125.911	-13.872	25.869	114.39	-32.5489	-3.06129	119.843	-47.3216	-33.1922	137.882	-60.5409	-49.2202	138.167	13.5768	-46.3025	135.693	12.9524	-72.2887	131.376	9.23742	-97.608	162.153	-0.897678	-58.1204	148.68	-22.0642	-78.1302	135.05	-51.5846	-57.7259	169.441	-22.3782	-47.2614	157.034	-48.3661	-53.0233	147.959	-54.5273	-18.2646	185.33	-36.0359	-36.4841	167.346	-56.8291	-35.2764	159.946	-54.4686	-3.09816	186.44	2.05293	4.07181	191.548	-0.602807	34.8352	156.446	11.9604	18.8981	
249	2.075	127.992	-13.0402	27.396	116.547	-31.7901	-6.58712	121.06	-46.0384	-31.2373	140.716	-59.1126	-49.7077	140.286	15.0603	-47.0456	133.707	16.4353	-71.8005	132.464	13.4467	-95.6207	165.32	4.71177	-56.5619	155.306	-10.2317	-81.8659	140.631	-48.3782	-78.4691	169.97	-21.6388	-49.891	158.853	-48.8765	-52.1682	148.2	-55.2289	-20.3642	182.493	-34.2674	-36.2927	170.491	-58.5626	-33.6982	158.929	-51.0212	-3.78841	183.727	4.09938	4.69261	188.074	-0.324792	37.6673	159.244	13.3691	21.6331	
250	2.08333	125.112	-11.8785	23.2221	113.893	-32.4797	-4.1593	119.086	-46.5272	-33.8522	140.333	-56.7338	-47.1259	137.386	18.3168	-46.6965	136.62	18.7514	-68.7272	130.954	18.8919	-92.8165	165.193	8.8194	-51.0781	162.26	-2.35126	-82.7509	147.949	-33.5857	-96.027	174.956	-18.853	-44.7491	162.489	-45.8636	-53.6422	149.443	-54.9119	-20.8649	184.877	-34.1445	-34.5069	167.246	-56.9804	-32.3256	159.502	-51.4326	-3.73507	184.128	5.04614	8.01091	185.687	0.755073	35.8114	154.27	15.2901	19.7248	
251	2.09167	123.038	-10.9719	25.4962	116.259	-30.9418	-2.10317	120.423	-45.3377	-29.6253	142.117	-55.3651	-48.5361	136.142	18.0777	-40.8962	130.182	20.9436	-69.9538	130.836	20.0409	-96.9019	162.576	13.0704	-49.159	162.329	5.42969	-82.2304	152.598	-14.8417	-106.839	172.087	-15.0709	-46.1919	164.117	-43.682	-55.2224	149.809	-52.7069	-24.3121	186.397	-32.9353	-34.8358	167.398	-54.128	-32.0562	157.457	-51.2355	-3.07271	183.634	7.65901	5.64957	188.4	0.452813	35.6034	154.205	15.2745	20.714	
252	2.1	123.546	-12.1475	25.667	114.799	-30.5962	-6.25786	121.325	-45.6483	-31.8369	141.563	-55.1498	-43.3421	140.6	17.4007	-42.4733	132.614	20.1039	-70.2773	127.422	22.4164	-95.9845	164	13.3785	-49.9193	165.81	10.4952	-78.4091	157.497	-4.34794	-112.179	172.934	-13.3267	-46.1917	164.847	-40.8975	-57.7683	150.522	-52.317	-27.0223	182.884	-29.0987	-34.9566	170.315	-54.6376	-33.5851	161.297	-53.1059	-3.98787	186.19	7.00321	7.13208	189.154	1.66903	37.2025	156.207	15.5558	21.9671	
253	2.10833	123.929	-10.0009	23.055	115.768	-30.04	-2.16813	121.984	-45.7286	-34.9393	143.236	-55.9792	-47.7285	136.708	19.7664	-43.2295	131.151	21.9264	-69.5458	127.221	23.28	-91.7448	162.67	14.5332	-50.2116	166.606	12.5146	-81.646	161.002	5.5607	-112.9	175.283	-12.7208	-48.3173	164.116	-37.1115	-59.1769	149.746	-50.3356	-30.0109	185.984	-31.1541	-34.4429	169.772	-52.447	-35.8663	159.486	-52.5234	-5.23867	185.189	5.49019	4.97696	186.174	5.281	36.7701	156.97	16.9564	22.1904	
254	2.11667	126.599	-10.546	25.8134	117.605	-30.4273	-3.4861	123.786	-44.7725	-30.7603	147.199	-53.8393	-41.8401	139.958	19.0946	-47.382	134.317	19.674	-69.0678	126.539	23.5896	-97.2906	163.42	13.5249	-50.241	165.185	12.253	-81.1358	162.906	4.81708	-114.177	174.056	-13.0244	-48.8149	161.298	-39.3993	-59.5472	148.848	-48.8298	-28.2054	186.614	-33.4415	-35.8534	163.613	-52.0194	-33.3441	157.949	-48.831	-6.45373	188.128	4.96504	6.92543	186.022	5.05521	33.7773	155.394	17.1105	22.6831	
255	2.125	124.818	-10.0454	27.4203	116.41	-30.2411	-6.20419	121.686	-47.3677	-33.0119	147.768	-57.0474	-45.0834	138.562	18.4883	-43.0867	131.873	21.2657	-70.3879	127.871	23.2629	-97.3935	164.622	12.3663	-52.7463	165.512	9.97325	-80.4772	162.429	3.72243	-109.302	173.865	-12.9828	-46.0888	160.665	-42.1027	-57.5065	148.965	-48.5774	-29.6785	186.221	-33.9333	-35.5924	165.698	-54.138	-32.7198	156.528	-49.2156	-6.58286	185.95	4.65282	3.44765	187.675	3.51808	37.2707	153.899	16.8481	20.6123	
256	2.13333	126.857	-9.5876	22.993	117.704	-31.0127	-4.73202	124.497	-46.1855	-31.5006	145.674	-55.1916	-40.2015	140.124	17.5073	-45.8292	132.39	21.1874	-68.6553	129.28	21.9378	-94.5173	167.092	10.673	-49.8248	166.892	8.3409	-80.292	161.347	2.4356	-112.096	170.526	-12.8139	-50.4652	164.362	-40.7724	-57.4942	149.374	-49.6664	-29.1237	184.161	-35.0918	-37.4062	163.666	-52.6516	-31.9997	156.941	-50.6976	-6.2678	183.935	6.56467	5.08848	187.141	5.31141	34.4379	158.601	17.0615	22.9891	
257	2.14167	124.012	-9.82707	26.7329	118.295	-30.4012	-2.90034	122.119	-47.4281	-29.5648	147.069	-54.915	-41.047	136.597	18.8548	-46.0213	134.961	19.2068	-73.5362	130.283	21.0802	-95.1267	163.375	12.868	-52.3493	164.361	8.52854	-79.3696	162.444	-0.273347	-111.74	171.265	-12.324	-49.098	161.727	-41.0009	-57.3451	148.56	-49.1444	-29.1832	184.099	-34.2407	-35.2285	166.902	-53.6687	-32.9542	157.542	-48.5097	-2.58233	185.337	5.00549	2.42642	188.784	4.44574	34.1284	157.043	16.0668	22.9989	
258	2.15	126.302	-11.1925	27.3415	114.321	-31.5311	-5.89963	122.472	-47.0709	-30.4694	147.65	-57.0728	-42.4643	140.351	17.9578	-44.0127	135.062	19.4424	-73.227	132.491	19.0796	-93.2764	167.141	9.69592	-51.4698	163.592	8.53275	-83.4037	162.178	-2.36772	-112.59	175.278	-16.0715	-50.8452	160.877	-42.3513	-57.4856	149.95	-48.4884	-24.9895	184.22	-31.6763	-32.853	167.4	-56.4271	-31.2962	156.634	-47.6602	-4.08974	185.437	6.74066	4.66817	191.154	1.35893	33.1645	155.982	18.0037	21.4411	
